inDegrees=no
num_controls=7
num_derivatives=13
num_iterations=132
num_multipliers=7
num_parameters=0
num_slacks=7
num_states=26
objective=0.271345
objective_accelerations=0.000000
objective_balance=0.002327
objective_effort=0.079109
objective_height=0.181769
objective_ligament=0.008140
solver_duration=1480.724302
status=Solve_Succeeded
success=true
DataType=double
version=3
OpenSimVersion=4.5
endheader
time	/jointset/ground_pelvis/pelvis_tilt/value	/jointset/ground_pelvis/pelvis_tx/value	/jointset/ground_pelvis/pelvis_ty/value	/jointset/hip_r/hip_flexion_r/value	/jointset/hip_r/hip_adduction_r/value	/jointset/hip_r/hip_rotation_r/value	/jointset/back/lumbar_extension/value	/jointset/patellofemoral_r/patellar_flexion_r/value	/jointset/knee_r/knee_flexion_r/value	/jointset/knee_r/knee_adduction_r/value	/jointset/knee_r/knee_rotation_r/value	/jointset/ankle_r/ankle_angle_r/value	/jointset/subtalar_r/subtalar_angle_r/value	/jointset/ground_pelvis/pelvis_tilt/speed	/jointset/ground_pelvis/pelvis_tx/speed	/jointset/ground_pelvis/pelvis_ty/speed	/jointset/hip_r/hip_flexion_r/speed	/jointset/hip_r/hip_adduction_r/speed	/jointset/hip_r/hip_rotation_r/speed	/jointset/back/lumbar_extension/speed	/jointset/patellofemoral_r/patellar_flexion_r/speed	/jointset/knee_r/knee_flexion_r/speed	/jointset/knee_r/knee_adduction_r/speed	/jointset/knee_r/knee_rotation_r/speed	/jointset/ankle_r/ankle_angle_r/speed	/jointset/subtalar_r/subtalar_angle_r/speed	/forceset/tau_hip_flexion_r	/forceset/tau_hip_adduction_r	/forceset/tau_hip_rotation_r	/forceset/tau_knee_flexion_r	/forceset/tau_ankle_angle_r	/forceset/tau_subtalar_angle_r	/forceset/tau_lumbar_extension	lambda_cid13_p0	lambda_cid14_p0	lambda_cid14_p1	lambda_cid14_p2	lambda_cid14_p3	lambda_cid14_p4	lambda_cid14_p5	/jointset/ground_pelvis/pelvis_tilt/accel	/jointset/ground_pelvis/pelvis_tx/accel	/jointset/ground_pelvis/pelvis_ty/accel	/jointset/hip_r/hip_flexion_r/accel	/jointset/hip_r/hip_adduction_r/accel	/jointset/hip_r/hip_rotation_r/accel	/jointset/back/lumbar_extension/accel	/jointset/patellofemoral_r/patellar_flexion_r/accel	/jointset/knee_r/knee_flexion_r/accel	/jointset/knee_r/knee_adduction_r/accel	/jointset/knee_r/knee_rotation_r/accel	/jointset/ankle_r/ankle_angle_r/accel	/jointset/subtalar_r/subtalar_angle_r/accel	gamma_cid13_p0	gamma_cid14_p0	gamma_cid14_p1	gamma_cid14_p2	gamma_cid14_p3	gamma_cid14_p4	gamma_cid14_p5
0	-0.01617807557730214	0.1366217750083821	0.9315809878789016	0.1934211968871041	-0.247095590170023	-0.2289147109369878	-0.2903787966825928	0.2311786273363405	0.2311786273363406	0.1745181454826062	0.1723711959850764	0.089344008118978	0.04028650364002347	0	0	0	0	0	0	0	0	0	0	0	0	0	0.2844916067826981	-0.008848287577717289	0.06581582471490542	0.3305070509832952	0.08860334802437855	-0.002424075265025626	-0.5873375521341933	-30.06468167055012	99.85026781919416	21.56916592879633	-8.886622399927527	-267.4939020998436	999.9489773277872	74.68730670429599	40.78854850672445	-23.28403457732966	-19.48944066002327	295.3754340640294	149.132653667508	28.43434717278904	-117.7980002628764	509.0038871679311	509.0038871673092	-455.7099982448009	23.50920949780348	285.352858640591	261.0857180088451	0.001327619953513342	-0.0002608063535462455	-0.01688883635551693	0.01911776553112953	0.0008794900603068833	0.009966713166832402	-0.02659598848028982
0.01	-0.01602760746178861	0.1355096869882078	0.9304289871203301	0.2090443570729313	-0.2404298456678346	-0.2279417733509387	-0.2938993335495292	0.2547967417952982	0.2547967417953024	0.1537562917068403	0.173562308350884	0.1023105182460011	0.05214108269555694	-0.1202283961121394	-0.2155063571641665	-0.2646713570324267	3.110228924155878	1.191430609997109	0.1741404490709763	-0.4987046835312235	4.451193038013352	4.451193038010564	-3.809492129557685	0.1549530170645287	2.40916010990311	2.181666666408064	0.2901151532499324	-0.05869875898044146	0.04555274956764632	0.2570005376237934	0.04029066235531562	-0.06513746643013803	-0.4722597097657212	-30.1901349081821	75.79607278976977	-12.24720060938072	-0.7984444385430567	-121.3972009952026	996.7637470996382	-17.38034171391848	-61.4118504010956	-19.47135124339526	-33.10332138920463	316.3952251578708	84.74156053311967	12.23071935425212	14.90370108020778	372.0470100606031	372.0470100606386	-292.5480902127931	2.407586018932644	190.84572060357	167.9794998857882	0.0009148569611328553	0.000319284825000113	-0.00842960727857728	0.008650330984164682	0.0003255255270380645	0.004262288220201553	-0.01221161203673384
0.02	-0.02167608665357535	0.1324850524049047	0.9260008051585636	0.2552795272136208	-0.2257311358922135	-0.2251620661581796	-0.2962448365560867	0.3147007862229028	0.3147007862229119	0.1051036626551907	0.1744867985289617	0.1337982561597352	0.08006680020097125	-1.159789461460778	-0.3825093126257497	-0.6552362406389307	6.122401990971906	1.606593054686511	0.3613539213419605	0.2350067720756789	7.257185993729339	7.257185993729472	-5.578155055177001	-0.05332443754473946	3.70424555734218	3.214227689976176	0.2957386997171652	-0.1085492303831654	0.02528967442038525	0.1834940242642912	-0.008022023313747016	-0.1278508575952501	-0.3571818673972497	-30.32002712286137	49.8177642189142	-48.88512495488776	10.59396361848772	62.22580462428554	999.9536552687852	-146.7867150456693	-143.0779853405754	-13.58335423681305	-44.66814597483874	275.7642625960596	-6.120979394033397	31.0489518127906	128.6852275647488	179.9638707084582	179.9638707089782	-47.54415745712718	-49.13688483695589	62.53792614778303	31.26458944085475	0.0005020939687523687	0.0008993760035464715	2.962179836236978e-05	-0.001817103562800172	-0.0002284390062307544	-0.001442136726429297	0.002172764406822132
0.03	-0.04045914832650313	0.128042476555477	0.917178805157508	0.329217296475482	-0.2103851431187872	-0.2193965058267159	-0.2872239420311807	0.3946248272727517	0.3946248272727508	0.04853665792211755	0.1704738937755042	0.1729872595953766	0.1130545977067262	-2.59333359219001	-0.5021219111428492	-1.105753866461046	8.588735437205832	1.445650702510999	0.8288181578848901	1.579226024981183	8.63199317007507	8.631993170076962	-5.620650091763025	-0.7828986908937308	4.069026103216097	3.339417796670137	0.2941209660867962	-0.08470607352395662	0.01364834779103829	0.1846950161820038	0.01049845106592567	-0.1013222084972432	-0.3221215214619101	-29.91176606720186	54.72981511717852	-39.34439898929302	12.31981573361896	104.2488029197029	999.931436523947	-169.704111535219	-142.7901396289395	-10.61554678351174	-45.04356244611341	220.7629461690881	-24.09756342327145	59.86178387765211	138.7983579648586	101.7960331083542	101.7960331082833	34.41754419067246	-90.26954523613493	13.99647167341413	-3.676714149988603	0.0001999529113011661	0.000258023550505603	0.0007129760889469016	-0.003046738344986987	-5.845975237203456e-05	-0.00198063648451263	0.002943100563900211
0.04	-0.07343715384468913	0.1225107078960077	0.9038916305861885	0.42555741230609	-0.1972519139259083	-0.2079029782693015	-0.2644592382149386	0.4854083184882027	0.4854083184881985	-0.005051352986812222	0.1580848765581019	0.2139337390630009	0.1459297091926896	-3.998778230512938	-0.6003478746340916	-1.548271154691763	10.60287130472092	1.16404033857703	1.50694736653214	2.98376863034298	9.429076026849755	9.429076026850412	-4.982356290348551	-1.72854693033329	4.055740763738736	3.191690486017884	0.2925032324564227	-0.06086291666474667	0.002007021161690549	0.1858960080997095	0.02901892544559572	-0.07479355939923536	-0.2870611755265709	-28.43083963644944	56.34033830682002	-28.92786957768609	12.24114973783743	116.2023279922038	922.5034148517483	-169.0896323893558	-137.4580868593147	-9.306027231641647	-43.06807845655895	185.3247468522907	-30.25458174572488	73.18194623365467	140.7498980560072	64.41900679424938	64.41900679417066	88.61361014297249	-92.35168205506945	-13.07525092247254	-23.31889402838805	-9.99072815123192e-05	-0.0004085133073102602	0.001236003064348852	-0.004085903028930951	0.0001264461775099336	-0.002412622321182614	0.003432734859401425
0.05	-0.118866853934275	0.1160966260528921	0.8865381619997276	0.5383572375486727	-0.187503538523861	-0.188719638093576	-0.229088159013544	0.5817211480790319	0.5817211480790422	-0.048551811667653	0.136451126593674	0.2531734101521389	0.1757938338027683	-5.00003181128021	-0.6795932971574399	-1.89773521783165	11.81653261825762	0.7702613010457464	2.338551992467548	3.998070681728437	9.76083489306291	9.76083489306313	-3.615786917088507	-2.510401996679816	3.761157072057041	2.723717070745036	0.2433705904440116	-0.04911974243118759	0.004911934992206609	0.09411456429507625	-0.002071444734641649	-0.07494405437410057	-0.2296756019036729	-25.49887343697404	19.4925697308432	-35.82390125357004	13.7824971711158	136.9964774765357	526.1066895264369	-154.3615337554566	-68.37800658594878	-6.775736813202485	-27.66848378625377	68.26985070926669	-46.84950132643478	88.86853851549238	67.91387944874087	6.678481365830873	6.678481365813941	175.9040935785942	-58.63912207597707	-42.37095948188313	-67.43995977506201	-0.000261134053186582	-0.000535425594958647	0.0009326979169138799	-0.002784890379099994	8.28035850569501e-05	-0.001342557609490065	0.001796525785438395
0.06	-0.1716928924116353	0.1089817025744389	0.8663334700731575	0.6590702813476046	-0.1822749408110475	-0.1610764881100944	-0.1863453551445098	0.679176397298189	0.6791763972982104	-0.07534147808367818	0.1094914853354741	0.2885230380862871	0.1991975453604528	-5.478045908068093	-0.7405162017016397	-2.118515822713538	12.18551501599057	0.2600848007302772	3.198909328083293	4.458113563870929	9.657559952515353	9.657559952515511	-1.640197837385512	-2.793725189087656	3.277732132740746	1.899607875539033	0.1942379484316007	-0.03737656819762919	0.007816848822720256	0.002333120490444035	-0.03316181491487823	-0.0750945493489666	-0.1722900282807756	-21.33695658704653	-13.16372972738001	-42.18122995650378	15.4426322440459	142.003402711444	189.7797186630141	-131.0242814864849	-32.81019006343671	-5.641523635811937	-17.33138680495924	16.38896369153967	-53.53407430256193	78.93248816972181	29.89806420741417	-22.58775455789348	-22.58775455789685	210.4175514315628	7.354692732667652	-50.84350044939226	-94.54605001501913	-0.0004165236281812985	-0.000639616848073666	0.0005945998379910379	-0.001385343946794302	2.953789692670542e-05	-0.0002092486641822526	7.080751697160744e-05
